<svg width="83" height="68" viewBox="0 0 83 68" fill="none" xmlns="http://www.w3.org/2000/svg">
<path d="M1.88921 31.6696C3.59945 27.3268 6.39425 23.5397 9.98369 20.7011C13.5731 17.8625 17.8265 16.0758 22.3025 15.5263C26.7786 14.9768 31.3143 15.6846 35.4391 17.5762C39.5639 19.4678 43.1277 22.4743 45.7607 26.2839C48.3936 30.0934 49.9999 34.5673 50.4129 39.2414C50.8259 43.9154 50.0305 48.6195 48.1093 52.8655C46.1881 57.1115 43.211 60.7448 39.4869 63.3886C35.7628 66.0323 31.4273 67.5902 26.9301 67.9007L25.2596 41.6518L1.88921 31.6696Z" fill="url(#paint0_linear_8_5053)"/>
<path d="M69.0964 52.0215C66.0436 55.4505 62.1616 57.9566 57.8532 59.28C53.5447 60.6034 48.9668 60.6957 44.5942 59.5476C40.2215 58.3994 36.2135 56.0525 32.9859 52.7503C29.7583 49.4481 27.4287 45.3109 26.2386 40.7679C25.0486 36.2249 25.0415 31.4415 26.2181 26.9139C27.3947 22.3863 29.7122 18.2795 32.93 15.0195C36.1479 11.7594 40.1491 9.46487 44.5184 8.37386C48.8877 7.28285 53.466 7.43511 57.7784 8.81485L50.5637 34L69.0964 52.0215Z" fill="url(#paint1_linear_8_5053)"/>
<defs>
<linearGradient id="paint0_linear_8_5053" x1="25.2596" y1="15.3454" x2="25.2596" y2="67.9583" gradientUnits="userSpaceOnUse">
<stop stop-color="#E51616"/>
<stop offset="1" stop-color="#600C7F"/>
</linearGradient>
<linearGradient id="paint1_linear_8_5053" x1="41.7663" y1="58.6186" x2="61.042" y2="10.0485" gradientUnits="userSpaceOnUse">
<stop stop-color="#E51616"/>
<stop offset="1" stop-color="#600C7F"/>
</linearGradient>
</defs>
</svg>
